<svg xmlns="http://www.w3.org/2000/svg" viewBox="0 0 511.37 217.33"><path fill="currentColor" d="M89.8,189.46c0-.8,0-1.6,0-2.4q0-1.86-.06-3.72a5.06,5.06,0,0,0-.89-2.45,5.17,5.17,0,0,0-1.61-1.48c-.36-1.56-.73-3.12-1.1-4.68-1.1-4.59-2.27-9.16-3.45-13.73-1.05-4.07-2.25-8.11-3.27-12.19Q77.7,142.09,76,135.35c-.65-2.94-1.28-5.88-1.85-8.84-.72-3.71-1.26-7.45-1.75-11.2a134.09,134.09,0,0,1-1-21.48,86.13,86.13,0,0,1,3.39-20.55,43.88,43.88,0,0,1,3.92-8.63,26.37,26.37,0,0,1,2.76-3.3,19.86,19.86,0,0,1,2.88-2,16.79,16.79,0,0,1,2.25-.81c.49-.06,1-.1,1.44-.12s.72.11,1.08.19.53.25.78.39l.34.28a18.21,18.21,0,0,1,1.47,2.09,18.93,18.93,0,0,1,.85,2.47,57.75,57.75,0,0,1,.77,7.43c.16,2.5.31,5,.45,7.49a3.52,3.52,0,0,0,7-.65c-.19-3.38-.4-6.75-.6-10.13s-.59-7-2.09-10.22a15.57,15.57,0,0,0-2.76-4.21,10.43,10.43,0,0,0-4.86-2.89c-7.37-2-14.71,2.65-19.06,8.31-4.79,6.24-7.13,14.11-8.72,21.69a113,113,0,0,0-2,24.29c0,3.81.33,7.61.69,11.41.39,4.07.9,8.12,1.56,12.15,1.24,7.67,2.94,15.24,4.56,22.83.79,3.73,1.68,7.45,2.54,11.17,1.05,5,2.07,9.92,3,14.91.44,2.35.82,4.73,1.19,7.1.19,1.2.37,2.4.56,3.6.11.63.24,1.26.37,1.89a22.66,22.66,0,0,0,.76,3,8.18,8.18,0,0,0,2.45,3.3C81.6,199.4,87.12,198,89,194.08a8.11,8.11,0,0,0,.7-2.12,12,12,0,0,0,.13-2.5Z"/><path fill="currentColor" d="M120.85,123.79a6.49,6.49,0,0,0-5.25-5.73,28.87,28.87,0,0,0-9.85.28c-2.47.38-4.9.79-7.34,1.29-6.17,1.26-12.29,2.67-18.43,4.08-4.53,1-9,2.29-13.51,3.49q-11.65,3.12-23.29,6.38a7.81,7.81,0,0,0-4.46,4.06,8,8,0,0,0,3.77,10.67,8.44,8.44,0,0,0,6.21.29q11.38-3.18,22.8-6.27c4.51-1.22,9-2.48,13.55-3.61,5.42-1.35,10.84-2.7,16.25-4.09,2.42-.61,4.82-1.26,7.23-1.92,2.72-.74,5.42-1.59,8.15-2.32a6.4,6.4,0,0,0,2.67-1.86,6.48,6.48,0,0,0,1.43-3,6.05,6.05,0,0,0,.07-1.7Z"/><path fill="currentColor" d="M207,175.79l-.22-.24a51.27,51.27,0,0,1-2.32-6.79c-.69-2.4-1.37-4.81-2-7.22-1.82-6.92-3.43-14-5.94-20.7a34.16,34.16,0,0,0-5.08-9.58c-3-3.67-7.5-6.27-12.33-5.63a12,12,0,0,0-4.64,1.71,10.65,10.65,0,0,0-2.78,2.25,43.73,43.73,0,0,0-2.95,4,52.34,52.34,0,0,0-3.32,5.79l-.33-.81a34.84,34.84,0,0,0-4.36-8.08c-2.6-3.33-6.64-5.64-11-5.32a11.42,11.42,0,0,0-5.53,2c-1.78,1.12-2.94,3.1-4,4.83a13.32,13.32,0,0,0-1,2.78,22.3,22.3,0,0,0-.6,2.54c-.33,1.77-.76,3.52-1.08,5.29a86.49,86.49,0,0,0-1,9.62c-.25,3.86-.35,7.74-.37,11.61,0,6.54.05,13.08.09,19.62a7.66,7.66,0,0,0,2.75,5.3,7.92,7.92,0,0,0,11.18-.88,8.44,8.44,0,0,0,1.86-5.88c-.05-8.6-.29-17.23,0-25.83.12-2,.27-4.08.48-6.12,1,2.95,1.86,5.94,2.71,8.91,1.17,4.06,2.32,8.13,3.41,12.22a8,8,0,0,0,1.4,3.78,7.08,7.08,0,0,0,3.82,3.28l2,.65a8,8,0,0,0,9.26-6.44c.36-2.85.49-5.71.74-8.57l.34-3.94a48.2,48.2,0,0,1,1.67-9.09,45.1,45.1,0,0,1,2.83-6.4A97,97,0,0,1,185,157.71c.82,3,1.62,6.07,2.43,9.11.7,2.67,1.45,5.32,2.21,8q.49,1.72,1.11,3.42a20.91,20.91,0,0,0,2.06,4.48,9.78,9.78,0,0,0,6.84,4.63,7.25,7.25,0,0,0,3.86-.33,7.42,7.42,0,0,0,4.75-5.66,7.1,7.1,0,0,0-1.21-5.55Zm-.37-.43a3.09,3.09,0,0,1-.34-.65l.34.65Zm-23-34.91-.28.15,0,0a2.1,2.1,0,0,1,.26-.13Zm-28.75-2.36-.19.29.19-.29Zm-.12.58a2.09,2.09,0,0,1-.22.2l.22-.2Z"/><path fill="currentColor" d="M300.64,158.07a6.14,6.14,0,0,0-6.64-5.51c-3.75.43-7.55.53-11.32.63l-7.21.18c-4.19.1-8.36.39-12.55.28a57.63,57.63,0,0,1-12.5-1.54,38.81,38.81,0,0,1-6.42-3,30.64,30.64,0,0,1-4.09-3.54,29.7,29.7,0,0,1-2.62-3.69,18.63,18.63,0,0,1-.78-2,21.31,21.31,0,0,1-.21-2.87,32,32,0,0,1,1-5.58,39.55,39.55,0,0,1,3.43-7,48,48,0,0,1,6.14-7.29,43.13,43.13,0,0,1,7-4.77c1.09-.54,2.19-1.06,3.31-1.55a26.21,26.21,0,0,1,3.69-1.13,6.94,6.94,0,0,0,4-3.6,7.11,7.11,0,0,0-3.34-9.48,7.48,7.48,0,0,0-5.52-.26c-1.24.36-2.48.66-3.69,1.13a56.15,56.15,0,0,0-5.62,2.75,43.2,43.2,0,0,0-8.73,5.93,50.63,50.63,0,0,0-13.28,18.33,35.52,35.52,0,0,0-2.47,10.08,24.64,24.64,0,0,0,1.38,11.73,33.23,33.23,0,0,0,6.8,9.94,32.89,32.89,0,0,0,8.72,6.4,40.18,40.18,0,0,0,9.7,3.56c4,1,8.26.91,12.34,1,5.66.14,11.28-.34,16.93-.73s11.46-.59,17.05-1.73l1.55-.35a6,6,0,0,0,3.9-4.67,5.84,5.84,0,0,0,.07-1.62Z"/><path fill="currentColor" d="M335.51,148.21a110.78,110.78,0,0,0-.65-15.67c-.26-2.58-.51-5.15-.81-7.71-.34-2.94-.76-5.88-1-8.83s-.54-6-.82-9c-.19-2.12-.46-4.25-.56-6.38q-.47-10-.92-20c-.11-2.48-.35-5-.31-7.47l.18-11.78q.14-8.36.25-16.72c.05-2.94.06-5.88.16-8.82.18-3.57.43-7.14.63-10.71l.08-1.84a7,7,0,0,0-1.2-3.31,6.89,6.89,0,0,0-9.59-1.71,6.58,6.58,0,0,0-2.84,4.43c-.32,5.4-.77,10.8-.86,16.22-.05,2.62-.1,5.23-.14,7.85q-.21,11.53-.4,23.08c0,1.71-.06,3.41-.1,5.12,0,1.87.16,3.78.23,5.65l.84,20.9c.18,4.56.68,9.12,1,13.67.33,4.22.78,8.43,1.19,12.64.44,4.5.8,9.06.82,13.59,0,2.41,0,4.82,0,7.23a12.66,12.66,0,0,0,.55,4.89,8.58,8.58,0,0,0,2.32,3.6,8.21,8.21,0,0,0,3.63,1.7,7.16,7.16,0,0,0,6.77-2.33,11.62,11.62,0,0,0,2-4.51c0-.12.05-.24.08-.36a5.67,5.67,0,0,0-.56-3.38Z"/><path fill="currentColor" d="M390,136.76a6.32,6.32,0,0,0-3.21-3.53,6.75,6.75,0,0,0-4.92-.24l-1.23.34a25.29,25.29,0,0,1-2.74.47c-.88-.41-1.75-.87-2.64-1.26s-1.62-.65-2.45-1c-2-.75-4-1.41-6.07-2.06-3.23-1-6.49-2.16-9.79-2.94-3.51-.82-7-1.63-10.52-2.3l-4.19-.79c2.52-3.43,5.17-6.78,7.9-10,5.39-6.42,10.84-12.78,16.51-19a7.39,7.39,0,1,0-11.24-9.59c-7.9,8.59-15.53,17.43-22.8,26.56q-2.55,3.21-5,6.48c-.94,1.25-1.87,2.5-2.73,3.81a10.59,10.59,0,0,0-2,4.23,9.54,9.54,0,0,0,.38,4.59,10,10,0,0,0,2.46,3.75,11.1,11.1,0,0,0,3.11,2,31.2,31.2,0,0,0,7.2,1.9l4.63.91c2.41.46,4.85.86,7.25,1.44l6.27,1.51c1.71.41,3.39,1,5.08,1.48,2.68.88,5.34,1.79,8,2.76l2,.72c1.06.39,2.16.76,3.24,1.07a17.56,17.56,0,0,0,4.58.47c.86-.15,1.72-.34,2.57-.55a13.07,13.07,0,0,0,1.37-.48,32.13,32.13,0,0,0,3.73-1.82c1-.53,2-1.06,2.93-1.63a5.68,5.68,0,0,0,2.59-4,6.53,6.53,0,0,0-.26-3.38Z"/><path fill="currentColor" d="M426.79,155.71c-.08-.22-.18-.44-.28-.65s0-.33,0-.5c0-.55-.07-1.09-.12-1.64-.13-1.38-.26-2.77-.41-4.15l-.9-8.7c-.56-5.39-1.15-10.78-1.74-16.17q-.94-8.67-1.88-17.36c-.57-5.29-1-10.6-1.52-15.91-.31-3.3-.63-6.6-.83-9.91-.55-8.91-.76-17.82-.44-26.75a48.93,48.93,0,0,1,1.4-10.31c.16-.45.33-.89.5-1.33.09-.67.2-1.34.35-2A26.09,26.09,0,0,1,422,36.16a22.23,22.23,0,0,1-.76-3.58c-.8-.31-1.65-.49-2.47-.73a4.51,4.51,0,0,0-4.9,2.51c-.72,1.73-1.52,3.43-2.23,5.17A30.78,30.78,0,0,0,410,45.26a82.48,82.48,0,0,0-1.2,12.94c-.16,3.91-.32,7.82-.33,11.73,0,4.24.15,8.48.3,12.72.24,6.52.77,13,1.18,19.54.64,10.16,1.62,20.3,2.15,30.46.25,4.81.49,9.62.65,14.44.08,2.43.1,4.87.12,7.31a16.36,16.36,0,0,0,.63,5.4,7.71,7.71,0,0,0,3.81,4.19,6.8,6.8,0,0,0,5.13.24,9.71,9.71,0,0,0,2-1,5.93,5.93,0,0,0,2.65-4.09,6.64,6.64,0,0,0-.27-3.43Z"/><path fill="currentColor" d="M477.71,151.35a8.09,8.09,0,0,0-10.26-4.75,35.09,35.09,0,0,0-4,1.56,12.89,12.89,0,0,0-4,2.8,9.8,9.8,0,0,0-2.1,3,15.41,15.41,0,0,0-1,3.27,10.91,10.91,0,0,0,.43,5.23,12.84,12.84,0,0,0,1.15,2.13,8.09,8.09,0,0,0,3.12,2.65c.79.29,1.59.55,2.41.79a9.64,9.64,0,0,0,4.59-.36,10.87,10.87,0,0,0,5.75-4,11.29,11.29,0,0,0,1.93-3.84,8.26,8.26,0,0,0,2.28-4.38,7.85,7.85,0,0,0-.35-4.12Z"/></svg>