<svg id="Lager_1" data-name="Lager 1" xmlns="http://www.w3.org/2000/svg" viewBox="0 0 328.35 399.27"><path fill="currentColor" d="M310.09,111.49a25.8,25.8,0,0,0-2.27-5.55,21.79,21.79,0,0,0-2.79-4.12,35.87,35.87,0,0,0-4.24-4.47,55.45,55.45,0,0,0-5.8-4.19,53.21,53.21,0,0,0-9.91-4.85c-2.33-.92-4.71-1.7-7.08-2.5a26.77,26.77,0,0,0-.54-3A23.56,23.56,0,0,0,275,76.24,40.31,40.31,0,0,0,268,67.15a59.15,59.15,0,0,0-8.67-6.94A84.21,84.21,0,0,0,249.08,54a96.67,96.67,0,0,0-12.14-4.92A88.57,88.57,0,0,0,213,44.73l-1.72-.08a55.38,55.38,0,0,0-9.45-11.58,58.34,58.34,0,0,0-9.14-6.86,55.6,55.6,0,0,0-12-5.46,58.45,58.45,0,0,0-11.3-2.54,61.26,61.26,0,0,0-12.55-.36,51.7,51.7,0,0,0-11.54,2.32,37.59,37.59,0,0,0-4.88,2,71.07,71.07,0,0,0-6.3,3.29c-1.23.73-2.43,1.52-3.63,2.32-.38-.27-.77-.53-1.16-.78a21.84,21.84,0,0,0-5.41-2.4,26.85,26.85,0,0,0-5.91-.92,33.17,33.17,0,0,0-6.06.18c-6.39.77-12.26,3.34-17.76,6.59a54.68,54.68,0,0,0-7.69,5.79,46.83,46.83,0,0,0-6.55,7,50.63,50.63,0,0,0-5.17,8.19,47.9,47.9,0,0,0-3.36,9.21,44.82,44.82,0,0,0,3,29.08,42.33,42.33,0,0,0,5,8.53,57.58,57.58,0,0,0,4.52,5.1,85.19,85.19,0,0,0-14.67,12.82,132.73,132.73,0,0,0-14.08,18.2,136.63,136.63,0,0,0-11.34,21.12c-1.54,3.59-3,7.23-4.14,11a56.28,56.28,0,0,0-2.33,11.7,48.92,48.92,0,0,0,0,11,46.23,46.23,0,0,0,3.13,11.37,59.79,59.79,0,0,0,5,9.7A58.55,58.55,0,0,0,53,219.36,52.6,52.6,0,0,0,65.76,229a41.87,41.87,0,0,0,7.92,3.14A24.83,24.83,0,0,0,83,233a25.59,25.59,0,0,0,7.91-2.1,31.35,31.35,0,0,0,6.79-4.43,45.34,45.34,0,0,0,4.13-3.82,85.22,85.22,0,0,0,3.11,8.05c1.06,2.55,2.34,5,3.5,7.54,4.42,9.5,9.2,19,11.43,29.31a64.89,64.89,0,0,1,1,14.85,74.29,74.29,0,0,1-3.51,16.14,84.87,84.87,0,0,1-3.75,8.59,82.18,82.18,0,0,1-5.5,9.13A192.62,192.62,0,0,1,93,335.12c-1.74,0-3.47,0-5.21-.05-2.86,0-5.71,0-8.57,0s-5.61.15-8.42.37a72.16,72.16,0,0,0-8.91,1.29,32.05,32.05,0,0,0-16.52,8.4,11.92,11.92,0,0,0-3.28,8.68,32.25,32.25,0,0,0,.08,3.26c.1,2,.24,4,.4,6a36.26,36.26,0,0,0,1.66,8.76,12.38,12.38,0,0,0,2.09,3.78A5.89,5.89,0,0,0,48,377.38a9.05,9.05,0,0,0,3.83,1.94,20.27,20.27,0,0,0,3.79.27A5.49,5.49,0,0,0,56.88,381l.12.09a7.19,7.19,0,0,0,10.15-.51c4.28-4.19,8.44-8.52,12.66-12.78,3.33-3.35,6.73-6.65,10-10.09,2.64-2.8,5.3-5.58,7.92-8.39l1.29-.05a119.08,119.08,0,0,0,12.24-1.23,99.21,99.21,0,0,0,23.13-6.43,138.91,138.91,0,0,0,20.8-10.95,125.05,125.05,0,0,0,18.61-14.62,110.21,110.21,0,0,0,14.8-17.39,123.55,123.55,0,0,0,11.86-21,126.29,126.29,0,0,0,4.42-11.87,93.41,93.41,0,0,0,3-11.85,56.83,56.83,0,0,0,.89-11.79,36.45,36.45,0,0,0-.43-4.75,71,71,0,0,0,6.84-3.35,67.26,67.26,0,0,0,8.7-5.91,76.93,76.93,0,0,0,9.21-8.56,79.48,79.48,0,0,0,7-9.3,67.75,67.75,0,0,0,5.76-10.5c.3-.7.6-1.4.88-2.1a43.2,43.2,0,0,0,6-.17,51.76,51.76,0,0,0,11.25-2.6,68.48,68.48,0,0,0,11.27-5.12,64.85,64.85,0,0,0,17.51-14.68A47.34,47.34,0,0,0,299.18,165a44.39,44.39,0,0,0,2.19-6.14,25.74,25.74,0,0,0,.79-7.21,23.85,23.85,0,0,0-1-6.15,18.82,18.82,0,0,0-1.43-3.29c-.16-.34-.33-.66-.51-1a60.65,60.65,0,0,0,4.8-5.67,50.42,50.42,0,0,0,3.53-5.27,30.31,30.31,0,0,0,2.43-5.86,21.25,21.25,0,0,0,.58-2.18,22.08,22.08,0,0,0,.45-4A27.88,27.88,0,0,0,310.09,111.49Z"/></svg>